<?xml version="1.0" encoding="UTF-8"?>
<svg width="20px" height="24px" viewBox="0 0 20 24" version="1.1" xmlns="http://www.w3.org/2000/svg" xmlns:xlink="http://www.w3.org/1999/xlink">
    <!-- Generator: sketchtool 54.1 (76490) - https://sketchapp.com -->
    <title>9261F0ED-F804-4F8F-8335-9BFA68711569</title>
    <desc>Created with sketchtool.</desc>
    <g id="For-team" stroke="none" stroke-width="1" fill="none" fill-rule="evenodd">
        <g id="UI-Kit__" transform="translate(-513.000000, -1098.000000)" fill="#6D61BF" fill-rule="nonzero">
            <g id="Group-2" transform="translate(500.000000, 1088.000000)">
                <g id="delete" transform="translate(13.000000, 10.000000)">
                    <path d="M1.56345981,6.98264431 L1.56345981,20.5158702 C1.56345981,21.3157666 1.85740877,22.0669569 2.37090563,22.6059429 C2.88203713,23.1464309 3.59336366,23.453258 4.33780506,23.4545455 L14.7531041,23.4545455 C15.4977605,23.453258 16.209087,23.1464309 16.7200035,22.6059429 C17.2335004,22.0669569 17.5274494,21.3157666 17.5274494,20.5158702 L17.5274494,6.98264431 C18.5482071,6.71229306 19.2096461,5.72830029 19.0731007,4.68315665 C18.9363403,3.63822763 18.0441717,2.85656918 16.9879336,2.85635463 L14.1695067,2.85635463 L14.1695067,2.16974827 C14.1727322,1.59235522 13.9439379,1.03792058 13.5343016,0.630033508 C13.1246653,0.222360981 12.568162,-0.00464824717 11.9895104,7.21715556e-05 L7.10139873,7.21715556e-05 C6.5227471,-0.00464824717 5.9662438,0.222360981 5.5566075,0.630033508 C5.1469712,1.03792058 4.91817695,1.59235522 4.92140245,2.16974827 L4.92140245,2.85635463 L2.10297556,2.85635463 C1.04673746,2.85656918 0.154568925,3.63822763 0.0178083993,4.68315665 C-0.118736998,5.72830029 0.542702009,6.71229306 1.56345981,6.98264431 Z M14.7531041,22.3559753 L4.33780506,22.3559753 C3.39660919,22.3559753 2.66442461,21.5492128 2.66442461,20.5158702 L2.66442461,7.03092131 L16.4264846,7.03092131 L16.4264846,20.5158702 C16.4264846,21.5492128 15.6942999,22.3559753 14.7531041,22.3559753 Z M6.02236724,2.16974827 C6.01871165,1.88373382 6.13138852,1.60844757 6.334809,1.4065424 C6.5380144,1.20463723 6.81454576,1.09370735 7.10139873,1.09864235 L11.9895104,1.09864235 C12.2763633,1.09370735 12.5528947,1.20463723 12.7561001,1.4065424 C12.9595206,1.60823302 13.0721975,1.88373382 13.0685419,2.16974827 L13.0685419,2.85635463 L6.02236724,2.85635463 L6.02236724,2.16974827 Z M2.10297556,3.95492481 L16.9879336,3.95492481 C17.5351905,3.95492481 17.9788019,4.39757136 17.9788019,4.94363797 C17.9788019,5.48970458 17.5351905,5.93235113 16.9879336,5.93235113 L2.10297556,5.93235113 C1.5557186,5.93235113 1.11210724,5.48970458 1.11210724,4.94363797 C1.11210724,4.39757136 1.5557186,3.95492481 2.10297556,3.95492481 Z M9.27272727,8.72727273 C9.57400565,8.72727273 9.81818182,8.9726172 9.81818182,9.2753371 L9.81818182,19.6337538 C9.81818182,19.9362596 9.57400565,20.1818182 9.27272727,20.1818182 C8.97144884,20.1818182 8.72727273,19.9362596 8.72727273,19.6337538 L8.72727273,9.2753371 C8.72727273,8.9726172 8.97144884,8.72727273 9.27272727,8.72727273 Z M12.5454545,8.72727273 C12.8467329,8.72727273 13.0909091,8.9726172 13.0909091,9.2753371 L13.0909091,19.6337538 C13.0909091,19.9362596 12.8467329,20.1818182 12.5454545,20.1818182 C12.2441761,20.1818182 12,19.9362596 12,19.6337538 L12,9.2753371 C12,8.9726172 12.2441761,8.72727273 12.5454545,8.72727273 Z M6.54545455,8.72727273 C6.84673293,8.72727273 7.09090909,8.9726172 7.09090909,9.2753371 L7.09090909,19.6337538 C7.09090909,19.9362596 6.84673293,20.1818182 6.54545455,20.1818182 C6.24417611,20.1818182 6,19.9362596 6,19.6337538 L6,9.2753371 C6,8.9726172 6.24417611,8.72727273 6.54545455,8.72727273 Z" id="Shape"></path>
                </g>
            </g>
        </g>
    </g>
</svg>